<svg xmlns="http://www.w3.org/2000/svg" width="106" height="68" viewBox="0 0 106 68" fill="none"><g clip-path="url(#clip0)"><path d="M0.345703 35.8773H9.28818L21.9014 56.5389H21.9796V36.4799H18.4929V35.8773H26.0742V36.4799H22.5877V66.7842H21.5612L4.51277 38.9572H4.44038V66.1757H7.92152V66.7842H0.345703V66.1757H3.83225V36.4799H0.345703V35.8773Z" fill="#657795"></path><path d="M25.5055 35.8773H48.1607V43.3025H47.6698C47.1398 41.3895 45.5108 36.4853 40.5066 36.4853H34.4817V49.8984H36.6016C40.3113 49.8984 41.6 47.3391 42.3197 43.43H42.8163V56.9315H42.3197C41.6392 53.5477 40.5066 50.5068 37.02 50.5068H34.4817V66.1757H40.6965C45.3544 66.1757 48.1996 62.3113 49.2206 57.2744H49.7115V66.7842H25.5V66.1757H28.9867V36.4799H25.5055V35.8773Z" fill="#657795"></path><path d="M47.9707 35.8773H59.6022V36.4799H56.8353L63.6527 59.3584H63.7301L67.7082 46.421L64.757 36.4799H62.7097V35.8773H74.0343V36.4799H70.5139L77.3705 59.4028H77.4483L84.4551 36.4799H81.1971V35.8773H88.1705V36.4799H85.1024L75.362 68.0001H74.2631L68.0482 47.4217H67.9703L61.6108 68.0001H60.5115L51.1117 36.4799H47.9707V35.8773Z" fill="#657795"></path><path d="M32.1998 15.9235C32.1998 24.7477 25.143 31.9185 16.1168 31.9185C7.13507 31.9185 0 24.742 0 15.9235C0 7.17661 7.14058 0 16.1169 0C25.143 0 32.1998 7.17661 32.1998 15.9235ZM1.13802 15.9235C3.41426 20.6064 8.74744 25.1677 16.1169 25.1677C23.4527 25.1677 28.825 20.6009 31.101 15.9235C28.8249 11.3179 23.4527 6.75082 16.1169 6.75082C8.74744 6.75082 3.41426 11.3179 1.13802 15.9235ZM24.3118 15.9178C24.3118 20.4016 20.6576 23.9733 16.1168 23.9733C11.5699 23.9733 7.88248 20.4016 7.88248 15.9178C7.88248 11.5057 11.5699 7.90086 16.1168 7.90086C20.6577 7.90086 24.3118 11.5057 24.3118 15.9178Z" fill="#657795"></path><path d="M16.1227 31.8578C7.26934 31.8578 0.0673828 24.7089 0.0673828 15.9235C0.0673828 7.17668 7.26924 0.060791 16.1227 0.060791C24.9539 0.060791 32.1447 7.17657 32.1447 15.9235C32.139 24.8581 25.1044 31.8578 16.1227 31.8578ZM16.1227 6.69017C8.37959 6.69017 3.1858 11.6495 1.08838 15.8958C3.16926 20.2307 8.35722 25.2285 16.1227 25.2285C23.8939 25.2285 29.082 20.2306 31.1628 15.9511C29.0653 11.6495 23.8659 6.69017 16.1227 6.69017ZM16.1173 23.9127C11.6097 23.9127 7.94424 20.3245 7.94424 15.9179C7.94424 11.5278 11.6096 7.96176 16.1173 7.96176C20.6024 7.96176 24.2564 11.5334 24.2564 15.9179C24.2507 20.3246 20.6024 23.9127 16.1173 23.9127Z" fill="#657795"></path><path d="M47.2682 0.414795C44.6742 0.414795 41.4105 2.12341 38.956 4.77152C36.8136 7.08819 34.2588 11.1409 34.2588 17.3002C34.2588 25.2674 40.8303 31.4432 46.4815 31.4432C48.7577 31.4432 50.1022 30.8403 51.2848 30.3042L51.3127 30.2931C52.2387 29.8785 53.0421 29.5192 54.13 29.5192C55.0508 29.5192 55.9208 30.0332 56.4509 30.8904L56.6851 31.2718V19.0805H56.3447L56.3223 19.1909C55.5749 23.8795 52.4674 30.8624 46.9727 30.8624C41.5277 30.8624 40.4119 25.5713 40.4119 17.6319C40.4119 9.8857 41.2321 0.989759 47.6141 0.989759C53.2986 0.989759 55.7306 9.2996 56.3446 11.843L56.3668 11.9369H56.7014V0.835014L56.4726 1.16657C55.9207 1.95731 55.1394 2.11773 54.0631 2.11773C53.3433 2.11773 52.5845 1.81917 51.7145 1.47627L51.6752 1.45977C50.4536 0.97337 49.0756 0.414795 47.2682 0.414795Z" fill="#657795"></path><path d="M76.6122 14.8563C78.4475 14.3478 82.7874 12.9155 82.7874 8.27128C82.7874 5.99358 81.6553 4.07497 79.5241 2.72585C77.5716 1.4819 74.8438 0.80188 71.8479 0.80188H57.9961V1.39901H62.8105V30.4644H57.9961V31.067H72.5169C79.3509 31.067 83.9423 27.5121 83.9423 22.2265C83.9423 18.5994 81.5436 16.1886 76.6122 14.8563ZM72.9298 14.552H68.9746V1.3987H70.1689C75.5188 1.3987 77.187 2.38831 77.187 7.71838C77.187 13.4298 75.7531 14.4748 72.9354 14.4748L72.9298 14.552ZM68.9746 15.1492H72.2609C75.2229 15.1492 78.1185 15.796 78.1185 22.4808C78.1185 29.1983 76.2663 30.4591 72.1099 30.4591H68.9746V15.1492Z" fill="#657795"></path><path d="M88.9623 29.6515C89.9385 29.6515 90.7808 29.9722 91.757 30.3426L91.8409 30.3757C93.1516 30.879 94.6248 31.443 96.8394 31.443C100.99 31.443 105.999 26.9645 105.999 21.408C105.999 15.5747 101.604 14.1264 97.3526 12.7221C93.6594 11.5002 90.1782 10.3502 90.1782 6.31385C90.1782 4.71596 90.6641 0.995236 95.1324 0.995236C100.638 0.995236 103.249 9.61467 103.249 11.7434V11.8706H103.606L103.617 0.547283L103.383 0.851312C102.725 1.71927 101.408 1.78567 101.018 1.78567C100.979 1.78567 100.945 1.78567 100.917 1.78567H100.878C100.382 1.78567 99.5953 1.5203 98.9645 1.28813C97.9161 0.901003 96.6109 0.420166 95.1323 0.420166C90.0053 0.420166 86.8308 5.49558 86.8308 10.2008C86.8308 15.934 91.199 17.4934 95.4278 19.0028C99.0093 20.2744 102.396 21.4743 102.396 25.2614C102.396 29.1095 99.4722 30.8347 96.5718 30.8347C89.5036 30.8347 86.9202 20.1308 86.9202 19.2293V19.1632H86.5693V30.9731L86.7923 30.7134C87.6179 29.729 88.2372 29.6515 88.9623 29.6515Z" fill="#657795"></path><path d="M88.8179 65.4959C89.8051 65.4959 90.6532 65.8273 91.6351 66.2031L91.7189 66.2366C93.0412 66.7507 94.5252 67.337 96.7621 67.337C100.946 67.337 106 62.7367 106 57.0253C106 51.0321 101.565 49.5392 97.275 48.1014C93.5541 46.8467 90.0393 45.6636 90.0393 41.5169C90.0393 39.875 90.5252 36.049 95.0327 36.049C100.588 36.049 103.222 44.9061 103.222 47.0895V47.2224H103.579L103.59 35.59L103.356 35.8994C102.692 36.7898 101.364 36.861 100.968 36.861C100.923 36.861 100.89 36.861 100.867 36.861H100.823C100.321 36.861 99.5289 36.5905 98.8931 36.347C97.8329 35.949 96.5222 35.457 95.0267 35.457C89.8549 35.457 86.6533 40.6706 86.6533 45.5031C86.6533 51.3916 91.06 52.9947 95.3224 54.5428C98.9378 55.8478 102.346 57.0857 102.346 60.9727C102.346 64.9262 99.3948 66.7009 96.4775 66.7009C89.3478 66.7009 86.742 55.7035 86.742 54.7802V54.7142H86.3857V66.8445L86.6087 66.5734C87.4571 65.5785 88.0868 65.4959 88.8179 65.4959Z" fill="#657795"></path></g><defs><clipPath id="clip0"><rect width="106" height="68" fill="white"></rect></clipPath></defs></svg>