<svg xmlns="http://www.w3.org/2000/svg" width="162" height="68" viewBox="0 0 162 68" fill="none"><g clip-path="url(#clip0_18539_230735)"><path d="M29.7291 16.0001C26.6287 16.013 23.5444 17.6442 22.0051 20.8929L21.2939 22.3924V34.7829V47.1733L22.0051 48.6728C23.1088 51.002 24.817 52.4723 27.3774 53.2841C29.2123 53.8658 32.1373 53.5593 34.003 52.5941C35.2132 51.9681 36.9258 50.1043 37.5869 48.694L38.1924 47.3986V34.7829V22.1671L37.5306 20.8295C35.9417 17.5939 32.8295 15.9872 29.7291 16.0001ZM29.8699 22.139C29.982 22.1397 30.0942 22.1508 30.2008 22.1742C30.5584 22.2527 31.1546 22.6672 31.5316 23.0964L32.2216 23.8779V34.7266V45.5752L31.7147 46.3144C31.4358 46.7229 30.9122 47.1602 30.5529 47.286C30.1936 47.4118 29.7881 47.513 29.6516 47.5112C29.1087 47.504 28.2659 46.9034 27.7787 46.1807L27.2647 45.4204V34.811C27.2655 24.684 27.2815 24.1649 27.7013 23.4766C28.1977 22.6625 29.085 22.1337 29.8699 22.139Z" fill="#657795"></path><path d="M100.765 53.1662C98.1535 52.1977 96.4378 50.5292 95.4492 47.9963C95.1012 47.105 95.0663 45.5998 95.0724 31.7761L95.0791 16.5384L98.1223 16.4757L101.165 16.413L101.169 31.0063C101.171 42.2837 101.237 45.7276 101.456 46.1628C101.612 46.4726 102.098 46.9193 102.536 47.1554C103.521 47.6861 104.346 47.523 105.25 46.6192L105.897 45.9722V31.1926V16.413L108.942 16.4757L111.988 16.5384L111.987 31.7846C111.987 46.6833 111.976 47.0595 111.517 48.2857C110.854 50.057 109.163 51.8352 107.284 52.7372C105.324 53.6777 102.624 53.8555 100.765 53.1662H100.765Z" fill="#657795"></path><path d="M0 34.7861V16.4257H7.54798H15.096V19.5797V22.7336H10.7024H6.30876V27.0255V31.3175L9.06884 31.2792L11.8289 31.2408L11.8916 34.3088L11.9543 37.3768H9.13153H6.30876V45.2617V53.1465H3.15438H0V34.7861Z" fill="#657795"></path><path d="M46.6398 34.7861V16.4257H51.324C56.4247 16.4257 57.8208 16.6369 59.5962 17.6772C60.9354 18.4619 62.3351 20.0396 63.0471 21.567C63.6232 22.8027 63.6461 23.0086 63.7194 27.6222C63.7805 31.4616 63.7243 32.6754 63.4331 33.8119C63.0127 35.4527 62.2465 36.8512 61.1879 37.9096L60.4394 38.658L62.4144 45.4204C63.5006 49.1398 64.4581 52.3997 64.5422 52.6647C64.6937 53.1417 64.6629 53.1465 61.4437 53.1465H58.1923L57.246 49.4857C56.303 45.8376 53.8953 36.698 53.6911 35.9912C53.6137 35.7234 53.7711 35.5782 54.2536 35.4722C55.1474 35.2759 56.7623 33.8669 57.1461 32.9485C57.3689 32.4154 57.4548 31.0747 57.4548 28.1302V24.0506L56.7962 23.3921C56.1841 22.7801 56.0169 22.7336 54.4304 22.7336H52.7232V37.94V53.1465H49.6815H46.6398V34.7861Z" fill="#657795"></path><path d="M76.1534 52.9775C76.1521 52.8846 76.1268 46.0671 76.0971 37.8274L76.0431 22.8462L73.283 22.783L70.5229 22.7197V19.5727V16.4257H79.0848H87.6467V19.5797V22.7336H84.943H82.2392V37.94V53.1465H79.1975C77.5245 53.1465 76.1547 53.0705 76.1534 52.9775Z" fill="#657795"></path><path d="M120.092 34.7861V16.4257H123.2H126.307L126.547 17.2705C126.679 17.7352 127.706 21.0046 128.828 24.5359C129.95 28.0671 131.189 31.9955 131.581 33.2655C131.973 34.5355 132.389 35.5746 132.506 35.5746C132.636 35.5746 132.713 31.8769 132.704 26.0565L132.69 16.5384L135.741 16.4757L138.793 16.413V34.7798V53.1465H135.347H131.901L131.256 51.0627C130.902 49.9166 130.277 47.9288 129.868 46.6455C129.458 45.3622 128.544 42.4476 127.836 40.1687C127.128 37.8898 126.465 36.0252 126.362 36.0252C126.259 36.0252 126.175 39.8775 126.175 44.5859V53.1465H123.133H120.092V34.7861H120.092Z" fill="#657795"></path><path d="M146.904 34.7861V16.4257H154.452H162V19.5797V22.7336H157.489H152.978L153.039 26.9576L153.1 31.1816H155.973H158.846L158.846 34.2792L158.846 37.3768H155.917H152.988V42.1077V46.8386H157.494H162V49.9926V53.1465H154.452H146.904V34.7861H146.904Z" fill="#657795"></path></g><defs><clipPath id="clip0_18539_230735"><rect width="162" height="37.584" fill="white" transform="translate(0 16)"></rect></clipPath></defs></svg>