<svg xmlns="http://www.w3.org/2000/svg" width="69" height="68" viewBox="0 0 69 68" fill="none"><g clip-path="url(#clip0)"><path fill-rule="evenodd" clip-rule="evenodd" d="M0.500977 3.24272V64.7456C0.500977 66.9149 1.58567 67.9991 3.75505 67.9991H65.2579C67.4273 67.9991 68.512 66.9149 68.512 64.7456V3.24272C68.512 1.07282 67.4273 -0.0113525 65.2579 -0.0113525H3.75505C1.58567 -0.0113525 0.500977 1.07282 0.500977 3.24272Z" fill="#657795"></path><path fill-rule="evenodd" clip-rule="evenodd" d="M8.68848 44.2111H13.9248V36.682H19.8626V44.2111H25.0983V23.7771H19.8626V31.4742H13.9248V23.7771H8.68848V44.2111ZM32.1322 23.7771H28.2306V41.5932C28.2306 43.033 29.4086 44.2111 30.8484 44.2111H41.054V39.459H34.0698C33.738 39.459 33.4663 39.1873 33.4663 38.8555V23.7771H32.1322ZM60.3244 23.7771H55.4282V35.5833L49.5506 25.2491C48.9698 24.1655 48.3549 23.7512 47.7192 23.7771H44.111V44.2111H49.0072V33.8323L54.3923 42.3056C54.932 43.1424 55.3437 44.2111 56.3677 44.2111H60.3244V23.7771Z" fill="white"></path></g><defs><clipPath id="clip0"><rect width="68" height="68" fill="white" transform="translate(0.5)"></rect></clipPath></defs></svg>