<svg xmlns="http://www.w3.org/2000/svg" width="163" height="32" viewBox="0 0 163 32" fill="none"><path d="M137.177 4.97233V27.1072H148.215C151.3 27.1072 153.085 26.626 154.384 25.5032C156.007 24.0597 156.819 21.4933 156.819 16.0398C156.819 10.5863 156.007 8.01989 154.384 6.57631C153.085 5.45352 151.3 4.97233 148.215 4.97233H137.177ZM152.274 16.0398C152.274 20.8517 151.949 21.9745 150.975 22.6161C150.326 23.0973 149.514 23.2577 147.891 23.2577H141.722V8.66148H147.891C149.514 8.66148 150.326 8.66148 150.975 9.30307C151.949 10.1051 152.274 11.2278 152.274 16.0398ZM162.5 32H130.116V0H162.5V32ZM103.658 8.66148V4.97233H122.812V12.0298H118.753V8.66148H110.961V13.9546H117.13V17.4834H110.961V23.4181H118.916V19.5685H122.973V27.1072H103.659V23.4181H106.742V8.66148H103.658ZM86.2892 21.3329C86.2892 23.7389 86.4502 25.5032 86.7749 26.9468H91.159C90.9953 25.824 90.8343 23.7389 90.8343 21.0121C90.6707 17.8042 89.6967 17.323 87.4242 16.8418C90.0214 16.3606 91.159 15.2378 91.159 11.2278C91.159 8.01989 90.6707 6.73671 89.6967 5.93472C89.0474 5.29313 87.9125 4.97233 86.1256 4.97233H72.4903V27.1072H77.0354V18.4457H83.3674C84.666 18.4457 85.1517 18.6061 85.6399 18.9269C86.1282 19.2477 86.2892 19.7289 86.2892 21.3329ZM77.0354 14.917V8.82188H84.3413C85.3153 8.82188 85.6399 8.98228 85.8009 9.14267C86.1256 9.46347 86.4502 9.94466 86.4502 11.8694C86.4502 13.7942 86.1256 14.4358 85.8009 14.7566C85.6399 14.917 85.3153 15.0774 84.3413 15.0774L77.0354 14.917ZM97.652 32H65.187V0H97.5701V32H97.652ZM56.7461 23.4181V27.1072H41.324V23.4181H46.843V8.66148H41.324V4.97233H56.7448V8.66148H51.2258V23.4181H56.7461ZM30.6924 4.97233H26.4719L23.3878 22.4557L19.8166 6.25551C19.6543 5.13273 19.1673 4.97233 18.1934 4.97233H15.9208C14.9469 4.97233 14.4599 5.29313 14.2976 6.25551L10.7265 22.4557L7.64228 4.97233H3.09719L7.47996 25.9844C7.64228 26.9468 7.96693 27.1072 9.10321 27.1072H12.1874C13.1613 27.1072 13.486 26.9468 13.8106 25.9844L17.2194 10.7467L20.6283 25.9844C20.7906 26.9468 21.1152 27.1072 22.2515 27.1072H25.1733C26.1473 27.1072 26.6343 26.9468 26.7966 25.9844L30.6924 4.97233ZM32.9649 32H0.5V0H32.8844V32H32.9649Z" fill="#657795"></path></svg>