<svg xmlns="http://www.w3.org/2000/svg" width="97" height="50" viewBox="0 0 97 50" fill="none"><path d="M16.904 0.170378V1.17502L17.8565 1.38946C19.3205 1.74784 19.541 2.60854 20.126 5.33312L21.65 12.9928L17.402 35.3666L11.6165 7.25427C10.9565 4.16985 10.7375 1.87562 13.082 1.3733L14.18 1.15886V0.170378H0.5V1.17502L1.892 1.53487C3.284 1.89325 3.869 2.53804 4.8215 6.76958L14.1215 49.8678H16.5215L22.7465 17.311L29.6465 49.8678H31.5515L40.487 8.10176C41.513 3.29887 41.9525 1.93291 43.712 1.49227L45.1025 1.13242V0.170378H35.0525V1.17502L36.59 1.46143C38.7875 1.89178 39.299 3.25333 38.273 8.77592L32.795 35.3666L27.245 7.25427C26.645 4.45773 26.2925 1.87562 28.7105 1.44527L30.3215 1.15886V0.154221L16.904 0.170378ZM82.07 0.305505V1.31015L83.9 1.7405C85.5095 2.09888 86.1695 2.67317 86.1695 4.68098V39.4615C86.1695 43.3332 86.1695 48.4255 82.067 48.4255C79.724 48.4255 77.897 46.4177 78.041 45.0546C78.1865 42.8324 82.142 42.9748 82.361 39.3896C82.5815 36.8927 80.969 35.7176 79.358 35.5164C77.0885 35.23 74.306 37.0939 74.231 40.8231C74.159 45.626 77.381 50 82.871 50C88.946 50 92.921 45.9873 92.921 38.313L92.9225 4.75148C92.9225 2.74367 93.4355 2.09741 94.8995 1.7405L96.5 1.29399V0.289348L82.07 0.305505ZM57.395 0C51.17 0 47.6555 5.09224 47.6555 11.7605C47.6555 24.1672 63.9875 28.9716 63.9875 40.1592C63.9875 45.4659 61.7165 48.4049 58.4375 48.4049C53.5325 48.4049 50.015 42.5988 49.1375 33.347H48.0395V49.6974H48.9185C49.6505 47.3474 50.603 47.1168 51.4085 47.1168C52.8005 47.1168 54.263 49.9809 58.511 49.9809C65.0285 49.9809 69.275 44.4613 69.278 36.8559C69.278 21.9405 52.946 18.2833 52.946 7.59797C52.946 5.1598 53.678 1.57599 57.341 1.57599C62.615 1.57599 64.886 8.38817 65.7635 16.6353H66.8615V0.28788H65.9825C65.6165 1.86534 64.958 2.5821 64.0055 2.5821C62.321 2.5821 61.4555 0.00146797 57.4145 0.00146797L57.395 0ZM69.185 14.0635V14.2398L69.2195 14.2192L69.2015 14.0723L69.185 14.0635Z" fill="#657795"></path></svg>