<svg xmlns="http://www.w3.org/2000/svg" width="225.000000pt" height="225.000000pt" viewBox="0 0 225.000000 225.000000" preserveAspectRatio="xMidYMid meet"><g transform="translate(0.000000,225.000000) scale(0.100000,-0.100000)" fill="#000000" stroke="none"><path d="M1067 2013 c-4 -4 -33 -6 -65 -5 -43 1 -64 -3 -78 -16 -15 -14 -39 -17 -119 -17 -88 -1 -107 -4 -160 -28 -60 -28 -108 -66 -126 -99 -7 -14 4 -42 51 -122 33 -58 60 -107 60 -110 0 -4 -7 -6 -15 -6 -45 0 -9 -74 59 -121 23 -15 39 -39 52 -73 23 -65 106 -150 155 -161 54 -12 53 -14 -8 -55 -145 -97 -148 -120 -20 -120 45 0 106 6 135 14 l52 13 0 -154 0 -155 -52 47 c-104 93 -257 165 -352 165 -23 0 -74 8 -112 18 -38 10 -75 17 -82 14 -23 -7 -12 -41 44 -139 133 -232 249 -358 378 -412 43 -18 99 -35 126 -38 l49 -6 3 -106 3 -106 85 0 85 0 3 186 2 187 103 4 c92 3 110 7 170 36 148 73 247 219 307 456 26 103 27 156 2 156 -10 0 -29 -11 -41 -24 -33 -35 -122 -72 -258 -107 -137 -36 -179 -55 -239 -111 l-44 -41 0 71 0 70 39 -10 c44 -11 167 5 196 26 23 16 10 43 -25 50 -16 3 -45 12 -66 21 l-36 15 70 67 c39 38 98 88 132 113 184 133 259 304 189 430 -35 65 -85 90 -179 90 -63 0 -77 3 -87 19 -15 25 -105 54 -146 48 -20 -3 -46 3 -69 14 -37 19 -156 27 -171 12z m113 -48 c0 -3 -8 -13 -17 -23 -10 -10 -23 -27 -29 -38 -11 -18 -13 -18 -52 9 -23 15 -42 29 -42 32 0 2 15 9 33 14 35 10 107 14 107 6z m-203 -62 c-8 -21 -18 -55 -22 -75 -5 -34 -9 -38 -35 -38 -17 0 -30 4 -30 10 0 23 42 118 61 139 32 34 47 13 26 -36z m407 15 c25 -11 59 -67 71 -120 5 -20 0 -40 -20 -73 l-26 -46 -35 30 c-19 17 -49 38 -67 47 -17 9 -33 18 -35 19 -2 2 10 24 27 50 16 26 33 60 36 76 7 32 13 34 49 17z m-540 -73 c-13 -42 -24 -81 -24 -87 0 -7 -9 -22 -21 -34 l-21 -22 -80 59 c-44 32 -87 63 -96 68 -15 9 -15 12 4 32 32 32 120 58 195 59 l67 0 -24 -75z m436 66 c0 -13 -64 -104 -76 -108 -6 -2 -17 8 -24 22 -12 23 -11 28 7 52 23 32 93 57 93 34z m-205 -63 c66 -49 65 -58 -5 -58 -56 0 -60 2 -60 23 0 26 10 67 17 67 2 0 24 -15 48 -32z m545 4 c101 -50 89 -199 -26 -322 -52 -56 -72 -64 -50 -22 24 46 58 161 51 172 -15 25 -45 8 -82 -47 -28 -43 -52 -64 -92 -85 -30 -16 -56 -26 -58 -24 -3 3 18 32 46 65 83 101 103 142 101 208 -1 32 -2 61 -1 66 2 14 76 7 111 -11z m-859 -216 c45 -44 48 -56 17 -55 -52 2 -69 15 -108 83 -22 37 -40 70 -40 73 0 9 93 -63 131 -101z m437 89 c54 -4 121 -35 155 -72 17 -19 16 -21 -4 -46 -14 -19 -30 -27 -52 -27 -42 0 -174 37 -201 55 -29 21 -103 19 -171 -5 -57 -19 -60 -20 -76 -3 -29 29 -26 38 19 76 l43 36 117 -5 c64 -2 141 -6 170 -9z m-96 -154 c40 -16 94 -32 120 -36 26 -4 46 -11 43 -15 -2 -4 -33 -10 -67 -14 -125 -14 -232 -51 -271 -94 -10 -11 -24 -39 -31 -62 l-12 -42 -38 32 c-20 18 -46 50 -56 70 l-19 37 57 6 c107 11 175 48 144 79 -9 9 -22 8 -59 -5 -52 -19 -159 -23 -183 -7 -11 7 -1 10 35 10 31 0 88 13 150 35 55 19 103 35 107 35 3 0 39 -13 80 -29z m347 -127 c-55 -92 -113 -150 -187 -186 -56 -28 -78 -33 -137 -33 -81 0 -141 24 -165 67 -37 68 42 127 197 147 48 6 121 16 161 21 41 6 92 18 115 29 23 10 44 17 46 15 2 -2 -11 -29 -30 -60z m-434 -263 c19 -8 19 -8 -4 -20 -28 -16 -132 -31 -125 -19 8 13 77 47 94 47 8 0 24 -4 35 -8z m285 -6 l25 -14 -27 -1 c-32 0 -58 9 -58 21 0 13 32 10 60 -6z m-135 -160 c-1 -111 -5 -164 -18 -205 -9 -30 -19 -81 -23 -112 -6 -56 -6 -58 20 -68 l26 -10 -2 -167 -3 -168 -32 -3 -33 -3 0 433 c0 457 0 462 45 456 19 -3 20 -10 20 -153z m585 121 c0 -27 -43 -152 -72 -211 -94 -189 -235 -277 -413 -261 -38 4 -74 11 -79 16 -11 11 5 95 34 172 26 69 92 145 151 175 24 12 96 35 159 52 63 16 135 39 160 50 54 25 60 25 60 7z m-1090 -182 c25 -3 88 -26 140 -52 73 -36 111 -62 167 -118 l73 -71 0 -107 0 -108 -32 7 c-18 3 -67 18 -108 32 -67 23 -83 35 -155 107 -76 77 -134 154 -204 274 l-31 53 53 -6 c28 -3 72 -8 97 -11z"></path></g></svg>